# AST/ASF file generated using VICON BodyLanguage
# -----------------------------------------------
:version 1.10
:name VICON
:units
  mass 1.0
  length 0.45
  angle deg
:documentation
   .ast/.asf automatically generated from VICON data using
   VICON BodyBuilder and BodyLanguage model FoxedUp or BRILLIANT.MOD
:root
   order TX TY TZ RX RY RZ
   axis XYZ
   position 0 0 0  
   orientation 0 0 0 
:bonedata
  begin
     id 1 
     name lhipjoint
     direction 0.547975 -0.797114 0.253638 
     length 2.36201 
     axis 0 0 0  XYZ
  end
  begin
     id 2 
     name lfemur
     direction 0.34202 -0.939693 0  
     length 7.69075  
     axis 0 0 20  XYZ
    dof rx ry rz
    limits (-160.0 20.0)
           (-70.0 70.0)
           (-60.0 70.0)
  end
  begin
     id 3 
     name ltibia
     direction 0.34202 -0.939693 0   
     length 7.91399   
     axis 0 0 20   XYZ
    dof rx
    limits (-10.0 170.0)
  end
  begin
     id 4 
     name lfoot
     direction 0.0705293 -0.193778 0.978507   
     length 2.13618   
     axis -90 7.62852e-016 20   XYZ
    dof rx rz
    limits (-45.0 90.0)
           (-70.0 20.0)
  end
  begin
     id 5 
     name ltoes
     direction 1.53592e-011 -4.21925e-011 1   
     length 1.07518   
     axis -90 7.62852e-016 20   XYZ
    dof rx
    limits (-90.0 20.0)
  end
  begin
     id 6 
     name rhipjoint
     direction -0.57 -0.782963 0.249136   
     length 2.4047  
     axis 0 0 0  XYZ 
  end
  begin
     id 7 
     name rfemur
     direction -0.34202 -0.939693 0   
     length 7.51486   
     axis 0 0 -20   XYZ
    dof rx ry rz
    limits (-160.0 20.0)
           (-70.0 70.0)
           (-70.0 60.0)
  end
  begin
     id 8 
     name rtibia
     direction -0.34202 -0.939693 0   
     length 8.08317   
     axis 0 0 -20   XYZ
    dof rx
    limits (-10.0 170.0)
 end
 begin
     id 9 
     name rfoot
     direction -0.104954 -0.281256 0.953876   
     length 2.30343  
     axis -90 -7.62852e-016 -20   XYZ
    dof rx rz
    limits (-45.0 90.0)
           (-20.0 70.0)
  end
  begin
     id 10 
     name rtoes
     direction -1.53556e-011 -4.21922e-011 1   
     length 1.14803   
     axis -90 -7.62852e-016 -20   XYZ
    dof rx
    limits (-90.0 20.0)
  end
  begin
     id 11 
     name lowerback
     direction -0.0152855 0.99353 -0.11254   
     length 2.05311   
     axis 0 0 0   XYZ
    dof rx ry rz
    limits (-20.0 45.0)
           (-30.0 30.0)
           (-30.0 30.0)
  end
  begin
     id 12 
     name upperback
     direction -0.00157509 0.999443 -0.033332   
     length 2.06353   
     axis 0 0 0   XYZ
    dof rx ry rz
    limits (-20.0 45.0)
           (-30.0 30.0)
           (-30.0 30.0)
  end
  begin
     id 13 
     name thorax
     direction 0.00577788 0.999804 0.0189484   
     length 2.08472   
     axis 0 0 0   XYZ
    dof rx ry rz
    limits (-20.0 45.0)
           (-30.0 30.0)
           (-30.0 30.0)
  end
  begin
     id 14 
     name lowerneck
     direction -1.09301e-005 0.994719 0.10264   
     length 1.76249   
     axis 0 0 0   XYZ
    dof rx ry rz
    limits (-20.0 45.0)
           (-30.0 30.0)
           (-30.0 30.0)
  end
  begin
     id 15 
     name upperneck
     direction 0.0495018 0.988526 -0.142706   
     length 1.77897   
     axis 0 0 0   XYZ
    dof rx ry rz
    limits (-20.0 45.0)
           (-30.0 30.0)
           (-30.0 30.0)
  end
  begin
     id 16
     name head
     direction 0.0142736 0.998114 -0.0597101  
     length 1.78934  
     axis 0 0 0   XYZ
    dof rx ry rz
    limits (-20.0 45.0)
           (-30.0 30.0)
           (-30.0 30.0)
  end
  begin
     id 17 
     name lclavicle
     direction 0.918111 0.396107 -0.0130883  
     length 3.37276  
     axis 0 0 0   XYZ
    dof ry rz
    limits (-20.0 10.0)
           (0.0 20.0)
  end
  begin
     id 18 
     name lhumerus
     direction 1 -4.48975e-011 -3.26108e-027   
     length 5.34298   
     axis 180 -30 -90   XYZ
    dof rx ry rz
    limits (-60.0 90.0)
           (-90.0 90.0)
           (-90.0 90.0)
  end
  begin
     id 19
     name lradius
     direction 1 -4.48964e-011 -8.84413e-028   
     length 3.67262   
     axis 180 -30 -90   XYZ
    dof rx
    limits (-10.0 170.0)
  end
  begin
     id 20
     name lwrist
     direction 1 -4.48991e-011 -1.24264e-027   
     length 1.83631   
     axis -2.17013e-015 90 90   XYZ
    dof ry
    limits (-180.0 0.0)
 end
  begin
     id 21 
     name lhand
     direction 1 -4.48855e-011 -2.48528e-027   
     length 0.599298   
     axis 1.58582e-015 90 90   XYZ
    dof rx rz
    limits (-90.0 90.0)
           (-45.0 45.0)
  end
  begin
     id 22 
     name lfingers
     direction 1 -4.48811e-011 -4.97056e-027   
     length 0.48317   
     axis 3.17164e-015 90 90   XYZ
    dof rx
    limits (0.0 90.0)
  end
  begin
     id 23
     name lthumb
     direction 0.707107 -6.34882e-011 0.707107   
     length 0.693738   
     axis -90 45 2.85299e-015   XYZ
    dof rx rz
    limits (-45.0 45.0)
           (-45.0 45.0)
  end
  begin
     id 24 
     name rclavicle
     direction -0.920511 0.384752 -0.0680135   
     length 3.43787  
     axis 0 0 0   XYZ 
    dof ry rz
    limits (-10.0 20.0)
           (-20.0 0.0)
  end
  begin
     id 25 
     name rhumerus
     direction -0.999976 -0.00330524 0.00603274  
     length 5.5498   
     axis 180 30 90   XYZ
    dof rx ry rz
    limits (-90.0 60.0)
           (-90.0 90.0)
           (-90.0 90.0)
  end
  begin
     id 26 
     name rradius
     direction -1 -4.48967e-011 8.62438e-027   
     length 3.69401   
     axis 180 30 90   XYZ
    dof rx
    limits (-10.0 170.0)
  end
  begin
     id 27 
     name rwrist
     direction -1 -4.4897e-011 9.54866e-027   
     length 1.84701   
     axis -7.69462e-015 -90 -90   XYZ
    dof ry
    limits (-180.0 0.0)
  end
  begin
     id 28
     name rhand
     direction -1 -4.48982e-011 1.90973e-026   
     length 0.638113   
     axis -1.21857e-014 -90 -90   XYZ
    dof rx rz
    limits (-90.0 90.0)
           (-45.0 45.0)
  end
  begin
     id 29
     name rfingers
     direction -1 -4.48936e-011 3.81946e-026   
     length 0.514463   
     axis -2.43714e-014 -90 -90   XYZ
    dof rx
    limits (0.0 90.0)
  end
  begin
     id 30
     name rthumb
     direction -0.707107 -6.34942e-011 0.707107   
     length 0.738669   
     axis -90 -45 -2.85299e-015   XYZ
    dof rx rz
    limits (-45.0 45.0)
           (-45.0 45.0)
  end
:hierarchy
  begin
    root lhipjoint rhipjoint lowerback
    lhipjoint lfemur
    lfemur ltibia
    ltibia lfoot
    lfoot ltoes
    rhipjoint rfemur
    rfemur rtibia
    rtibia rfoot
    rfoot rtoes
    lowerback upperback
    upperback thorax
    thorax lowerneck lclavicle rclavicle
    lowerneck upperneck
    upperneck head
    lclavicle lhumerus
    lhumerus lradius
    lradius lwrist
    lwrist lhand lthumb
    lhand lfingers
    rclavicle rhumerus
    rhumerus rradius
    rradius rwrist
    rwrist rhand rthumb
    rhand rfingers
  end

#!OML:ASF F:\twosubjects\two\Thursday\Session 1\Rory.ASF
:FULLY-SPECIFIED
:DEGREES
49
root 16.923 18.4274 1.81681 1.31355 -41.2212 4.33696
lowerback 9.07262 1.16814 -4.16438
upperback 3.94324 1.07436 -3.02329
thorax -1.01193 0.485796 -0.890456
lowerneck -12.053 2.93779 0.280189
upperneck 20.3382 3.93955 -0.16337
head 8.30799 1.82412 0.311382
rclavicle -1.55052e-014 2.8625e-014
rhumerus -39.3454 -11.5337 -74.2891
rradius 55.5357
rwrist 8.20329
rhand -16.5163 25.7225
rfingers 7.12502
rthumb 9.70201 -4.03407
lclavicle -1.55052e-014 2.8625e-014
lhumerus -44.0533 17.8577 73.2109
lradius 65.7788
lwrist -12.4551
lhand -24.0898 32.6889
lfingers 7.12502
lthumb 2.39062 62.6552
rfemur -16.6241 8.9171 5.50013
rtibia 23.6377
rfoot -7.50769 -19.0119
rtoes -15.2853
lfemur -6.67121 1.35761 -7.79395
ltibia 19.1085
lfoot -8.64146 5.61472
ltoes -17.1229
50
root 17.0656 18.4097 1.85453 1.66042 -41.736 3.83995
lowerback 9.59777 1.1921 -4.06893
upperback 4.23581 1.0885 -2.91682
thorax -0.997455 0.487475 -0.842313
lowerneck -12.387 2.74746 0.217949
upperneck 19.8205 3.65705 -0.00308765
head 8.18968 1.70802 0.345619
rclavicle 1.84075e-013 -3.65764e-014
rhumerus -39.5785 -11.523 -73.9331
rradius 57.5093
rwrist 7.31902
rhand -17.4733 25.5956
rfingers 7.12502
rthumb 8.77864 -4.2018
lclavicle 1.84075e-013 -3.65764e-014
lhumerus -43.9518 17.0466 74.0338
lradius 68.8766
lwrist -12.5379
lhand -24.9097 33.8921
lfingers 7.12502
lthumb 1.5988 63.8659
rfemur -17.2089 9.07317 5.41589
rtibia 23.9479
rfoot -8.48024 -18.8186
rtoes -9.82549
lfemur -6.98946 2.19646 -7.79692
ltibia 19.7404
lfoot -9.17942 5.2603
ltoes -22.171
51
root 17.189 18.4062 1.89354 1.73974 -42.2846 4.12982
lowerback 9.79252 1.22478 -4.51867
upperback 4.3583 1.07312 -3.12136
thorax -0.979118 0.471846 -0.804074
lowerneck -12.6124 2.45965 -0.309813
upperneck 19.5107 3.16186 0.999085
head 8.09856 1.53791 0.712985
rclavicle 1.72943e-014 1.03368e-014
rhumerus -40.1373 -11.7047 -73.6866
rradius 59.3543
rwrist 6.70838
rhand -18.2031 26.2142
rfingers 7.12502
rthumb 8.07427 -3.61155
lclavicle 1.72943e-014 1.03368e-014
lhumerus -44.1024 15.9659 74.4544
lradius 72.102
lwrist -12.6925
lhand -29.8688 35.1742
lfingers 7.12502
lthumb -3.19072 65.1301
rfemur -17.9883 9.11109 4.69425
rtibia 24.194
rfoot -7.8419 -18.5499
rtoes -11.0815
lfemur -8.05225 2.97263 -8.51911
ltibia 20.587
lfoot -9.37588 5.52846
ltoes -24.574
52
root 17.318 18.3756 1.93016 1.32199 -42.5968 5.21772
lowerback 10.05 1.18797 -5.34959
upperback 4.40654 0.913331 -3.54717
thorax -1.06888 0.382904 -0.769722
lowerneck -13.103 1.90083 -1.81239
upperneck 19.6338 2.29638 3.00036
head 8.18641 1.2186 1.54449
rclavicle -2.38542e-015 5.1684e-014
rhumerus -40.8771 -12.0535 -73.4942
rradius 61.4258
rwrist 6.35343
rhand -17.9292 26.9951
rfingers 7.12502
rthumb 8.3387 -2.82035
lclavicle -2.38542e-015 5.1684e-014
lhumerus -44.3171 14.9431 74.7644
lradius 75.3702
lwrist -12.2006
lhand -32.0492 36.7786
lfingers 7.12502
lthumb -5.29619 66.6924
rfemur -18.6858 9.04291 3.25962
rtibia 24.2244
rfoot -6.60553 -18.3726
rtoes -14.3963
lfemur -8.43712 3.51162 -9.92196
ltibia 21.2618
lfoot -10.61 5.44366
ltoes -18.5337
53
root 17.449 18.364 1.96309 1.40575 -42.8271 5.39751
lowerback 10.5483 1.14751 -6.11184
upperback 4.48065 0.747092 -3.40768
thorax -1.26753 0.291444 -0.18921
lowerneck -12.7293 1.94793 -1.14736
upperneck 18.5324 2.37664 2.31906
head 7.77028 1.24283 1.19588
rclavicle 1.23246e-014 1.90833e-014
rhumerus -41.2303 -12.1576 -72.9851
rradius 63.4108
rwrist 5.57107
rhand -17.3175 26.8549
rfingers 7.12502
rthumb 8.92899 -2.93618
lclavicle 1.23246e-014 1.90833e-014
lhumerus -44.5224 14.1066 75.6068
lradius 78.6002
lwrist -11.8171
lhand -32.1249 38.9686
lfingers 7.12502
lthumb -5.36932 68.8805
rfemur -19.2609 9.13197 2.62816
rtibia 24.2296
rfoot -6.65755 -18.57
rtoes -12.4878
lfemur -9.25279 4.04501 -10.5949
ltibia 22.0227
lfoot -11.3549 5.65375
ltoes -15.2618
